<svg xmlns="http://www.w3.org/2000/svg" viewBox="0 0 1396 264"><path fill="currentColor" fill-rule="evenodd" d="M 708 263 L 979 262 L 979 233 L 945 199 L 772 200 Z M 422 70 L 360 133 L 360 263 L 422 263 Z M 1139 1 L 1199 63 L 1278 64 L 1244 99 L 1200 99 L 1200 121 L 1331 262 L 1395 263 L 1395 242 L 1292 138 L 1395 33 L 1395 1 Z M 979 1 L 766 1 L 704 64 L 704 235 L 771 169 L 771 101 L 808 64 L 945 63 L 979 29 Z M 432 1 L 432 45 L 512 128 L 434 210 L 434 263 L 682 263 L 682 233 L 648 198 L 529 197 L 564 159 L 649 159 L 649 99 L 552 99 L 456 4 Z M 430 2 L 373 2 L 134 241 L 134 263 L 200 261 L 429 30 Z M 1001 0 L 1001 263 L 1061 263 L 1063 235 L 1162 234 L 1092 158 L 1062 157 L 1063 94 L 1220 263 L 1301 263 L 1063 2 Z M 682 29 L 682 0 L 490 1 L 553 63 L 649 62 Z M 300 1 L 232 3 L 0 240 L 0 263 L 65 261 L 299 28 Z"/></svg>